# xmcd
#
# Track frame offsets:
#	150
#	14206
#	27483
#	39177
#	53277
#	68278
#	83806
#	97403
#	110318
#	121936
#	135617
#	148595
#	160610
#	174058
#	186736
#
# Disc length: 2665 seconds
#
# Revision: 1
# Processed by: cddbd v1.5.2PL0 Copyright (c) Steve Scherf et al.
# Submitted via: audiograbber 1.83.01
#
DISCID=c00a670f
DTITLE=Hank Williams - Hits of Hank Williams PP00001
DYEAR=1900
DGENRE=Country
TTITLE0=Hey Good Lookin'
TTITLE1=Honky Tonkin'
TTITLE2=I can't Help It If I'm Still In Love With You
TTITLE3=I'm So Lonesome I Could Cry
TTITLE4=Jambalaya (On The Bayou)
TTITLE5=Kaw-Liga
TTITLE6=Love Sick Blues
TTITLE7=Take These Chains From My Heart
TTITLE8=Why Don't You Love Me
TTITLE9=Your Cheatin' Heart
TTITLE10=Long Gone Lonesome Blues  
TTITLE11=Moanin The  Blues
TTITLE12=Move It On Over
TTITLE13=My Buckets Got A Hole In It
TTITLE14=Cold Cold Heart
EXTD=
EXTT0=
EXTT1=
EXTT2=
EXTT3=
EXTT4=
EXTT5=
EXTT6=
EXTT7=
EXTT8=
EXTT9=
EXTT10=
EXTT11=
EXTT12=
EXTT13=
EXTT14=
PLAYORDER=
